<svg width="12" height="12" viewBox="0 0 12 12" fill="none" xmlns="http://www.w3.org/2000/svg">
<path fill-rule="evenodd" clip-rule="evenodd" d="M1.27273 0.272705C0.569819 0.272705 0 0.842525 0 1.54543V3.99998C0 4.70289 0.569819 5.27271 1.27273 5.27271H3.72727C4.43018 5.27271 5 4.70289 5 3.99998V1.54543C5 0.842525 4.43018 0.272705 3.72727 0.272705H1.27273ZM7.63637 0.272705C6.93347 0.272705 6.36365 0.842525 6.36365 1.54543V3.99998C6.36365 4.70289 6.93347 5.27271 7.63637 5.27271H10.0909C10.7938 5.27271 11.3636 4.70289 11.3636 3.99998V1.54543C11.3636 0.842525 10.7938 0.272705 10.0909 0.272705H7.63637ZM6.36365 7.9092C6.36365 7.20629 6.93347 6.63647 7.63637 6.63647H10.0909C10.7938 6.63647 11.3636 7.20629 11.3636 7.9092V10.3637C11.3636 11.0667 10.7938 11.6365 10.0909 11.6365H7.63637C6.93347 11.6365 6.36365 11.0667 6.36365 10.3637V7.9092ZM1.27273 6.63647C0.569819 6.63647 0 7.20629 0 7.9092V10.3637C0 11.0667 0.569819 11.6365 1.27273 11.6365H3.72727C4.43018 11.6365 5 11.0667 5 10.3637V7.9092C5 7.20629 4.43018 6.63647 3.72727 6.63647H1.27273Z" fill="#585858"/>
</svg>
