<svg width="13" height="10" viewBox="0 0 13 10" fill="none" xmlns="http://www.w3.org/2000/svg">
<path fill-rule="evenodd" clip-rule="evenodd" d="M1.27272 0.54541C0.921262 0.54541 0.636353 0.83032 0.636353 1.18177C0.636353 1.53323 0.921262 1.81814 1.27272 1.81814H11.4545C11.806 1.81814 12.0909 1.53323 12.0909 1.18177C12.0909 0.83032 11.806 0.54541 11.4545 0.54541H1.27272ZM1.27272 3.09082C0.921262 3.09082 0.636353 3.37573 0.636353 3.72718C0.636353 4.07864 0.921262 4.36355 1.27272 4.36355H11.4545C11.806 4.36355 12.0909 4.07864 12.0909 3.72718C12.0909 3.37573 11.806 3.09082 11.4545 3.09082H1.27272ZM0.636353 6.27284C0.636353 5.92138 0.921262 5.63647 1.27272 5.63647H11.4545C11.806 5.63647 12.0909 5.92138 12.0909 6.27284C12.0909 6.62429 11.806 6.9092 11.4545 6.9092H1.27272C0.921262 6.9092 0.636353 6.62429 0.636353 6.27284ZM1.27272 8.18188C0.921262 8.18188 0.636353 8.46679 0.636353 8.81825C0.636353 9.1697 0.921262 9.45461 1.27272 9.45461H11.4545C11.806 9.45461 12.0909 9.1697 12.0909 8.81825C12.0909 8.46679 11.806 8.18188 11.4545 8.18188H1.27272Z" fill="#585858"/>
</svg>
